<svg xmlns="http://www.w3.org/2000/svg" version="1.1" xmlns:xlink="http://www.w3.org/1999/xlink" width="150" height="150"><svg width="150" height="150" xmlns="http://www.w3.org/2000/svg" version="1.1">
 <g>
  <title>Layer 1</title>
  <rect fill="#03111f" stroke="#000" x="0" y="0" width="150" height="150" id="SvgjsRect1047"></rect>
  <g stroke="null" stroke-width="0" id="SvgjsG1046">
   <g stroke="null" id="SvgjsG1045">
    <rect stroke="null" transform="matrix(-0.209007 0.120671 -0.120671 -0.209007 149.267 -11.3733)" rx="13" id="SvgjsRect1044" height="200.34906" width="21.00716" y="-92.82758" x="288.31298" fill="#1491b6"></rect>
    <rect stroke="null" transform="matrix(-0.209007 -0.120671 0.120671 -0.209007 86.4485 58.3642)" rx="13" id="SvgjsRect1043" height="200.34906" width="21.00716" y="-19.98374" x="142.42911" fill="#1491b6"></rect>
    <rect stroke="null" transform="matrix(-0.209007 0.120671 -0.120671 -0.209007 268.316 108.71)" rx="13" id="SvgjsRect1042" height="221.32106" width="21.00716" y="211.55715" x="468.29203" fill="#1491b6"></rect>
    <rect stroke="null" transform="matrix(-0.209007 -0.120671 0.120671 -0.209007 -32.3572 178.512)" rx="13" id="SvgjsRect1041" height="221.32106" width="21.00716" y="284.40099" x="-37.01091" fill="#1491b6"></rect>
    <rect stroke="null" transform="matrix(0 0.24134 -0.24134 0 133.035 81.0096)" rx="13" id="SvgjsRect1040" height="206.05789" width="21.00716" y="318.89789" x="152.51689" fill="#1491b6"></rect>
    <rect stroke="null" transform="matrix(0 0.24134 -0.24134 0 220.682 -6.63738)" rx="13" id="SvgjsRect1039" height="206.05789" width="21.00716" y="318.89789" x="515.6843" fill="#1491b6"></rect>
    <rect stroke="null" transform="matrix(0.184877 0.155131 -0.155131 0.184877 91.5156 -33.3895)" rx="13" id="SvgjsRect1038" height="152.7215" width="21.00716" y="466.98359" x="415.04749" fill="#1491b6"></rect>
    <rect stroke="null" transform="matrix(0.184877 -0.155131 0.155131 0.184877 -83.4383 56.2473)" rx="13" id="SvgjsRect1037" height="152.7215" width="21.00716" y="560.63034" x="253.36431" fill="#1491b6"></rect>
   </g>
  </g>
  <rect transform="rotate(30 74.4875 79.4844)" stroke="#0f0f00" stroke-width="0" stroke-opacity="0" id="SvgjsRect1036" height="10" width="80.36121" y="74.48439" x="34.30693" fill="#27b0d5"></rect>
  <rect transform="rotate(-30 74.7928 80.3549)" stroke="#0f0f00" stroke-width="0" stroke-opacity="0" id="SvgjsRect1035" height="10" width="83.02035" y="75.35486" x="33.28265" fill="#27b0d5"></rect>
  <rect transform="rotate(90 75.2853 79.527)" stroke="#0f0f00" stroke-width="0" stroke-opacity="0" id="SvgjsRect1034" height="10" width="73.70318" y="74.52703" x="38.43374" fill="#27b0d5"></rect>
  <rect transform="rotate(60.6114 130.335 99.7913)" stroke="#0f0f00" rx="5" stroke-width="0" stroke-opacity="0" id="SvgjsRect1033" height="10" width="55.39538" y="94.79127" x="102.63755" fill="#27b0d5"></rect>
  <rect transform="rotate(-61 21.8549 99.5739)" stroke="#0f0f00" rx="5" stroke-width="0" stroke-opacity="0" id="SvgjsRect1032" height="10" width="55.39538" y="94.57387" x="-5.8428" fill="#27b0d5"></rect>
  <rect stroke="#0f0f00" rx="5" stroke-width="0" stroke-opacity="0" id="SvgjsRect1031" height="10" width="55.39538" y="115.22605" x="5.89633" fill="#27b0d5"></rect>
  <rect stroke="#0f0f00" rx="5" stroke-width="0" stroke-opacity="0" id="SvgjsRect1030" height="10" width="55.39538" y="115.22605" x="90.8966" fill="#27b0d5"></rect>
  <rect transform="rotate(-51 85.2851 132.59)" stroke="#0f0f00" rx="5" stroke-width="0" stroke-opacity="0" id="SvgjsRect1029" height="10" width="38.58425" y="127.58978" x="65.99294" fill="#27b0d5"></rect>
  <rect transform="rotate(51 66.7764 132.377)" stroke="#0f0f00" rx="5" stroke-width="0" stroke-opacity="0" id="SvgjsRect1028" height="10" width="38.03701" y="127.37714" x="47.7579" fill="#27b0d5"></rect>
  <rect transform="rotate(-61 63.7148 25.1359)" stroke="#0f0f00" rx="5" stroke-width="0" stroke-opacity="0" id="SvgjsRect1027" height="10" width="52.20653" y="20.1359" x="37.61156" fill="#27b0d5"></rect>
  <rect transform="rotate(61 85.5801 25.1359)" stroke="#0f0f00" rx="5" stroke-width="0" stroke-opacity="0" id="SvgjsRect1026" height="10" width="52.20653" y="20.1359" x="59.4768" fill="#27b0d5"></rect>
 </g>

</svg><style>@media (prefers-color-scheme: light) { :root { filter: none; } }
@media (prefers-color-scheme: dark) { :root { filter: none; } }
</style></svg>